<svg xmlns="http://www.w3.org/2000/svg" class="logo" role="img" aria-labelledby="altLogo" width="157px" height="55px" viewBox="-181 211.4 207.5 55" preserveAspectRatio="xMinYMid slice">
  <title id="altLogo">Casa do Código - Livros e Tecnologia</title>
  <rect class="logo-backgroundSimbolo" x="-181" y="211.4" width="65" height="55"></rect>
  <g class="logo-simbolo">
    <path transform="translate(-0.1, 0)" class="logo-simboloParteInterna" d="M-133.6,234.2v-7.2l0,0.2h-22.6v24.7h22.6v0.3l0-7.2h-15.9v-10.8H-133.6"></path>
    <path class="logo-simboloParteExterna" d="M-149.4,251.9h-6.9v-24.7h22.6v-6.9h-22.6l-6.7,6.9v24.7l6.7,6.9h22.6v-6.9H-149.4"></path>
  </g>

  <g class="logo-text">
    <path transform="translate(-78.000000, -35.000000)" class="logo-slogan" d="M-18.5,288h-5.1v-8.7h1.2v7.7h3.9V288z M-15,288h-1.1v-6.5h1.1V288z M-14.9,280.3h-1.3v-1.1
			h1.3V280.3z M-6.8,281.4l-2.5,6.5h-1l-2.4-6.5h1.2l1.8,5.1l1.8-5.1H-6.8z M-1,282.6L-1,282.6c-0.9-0.2-1.8,0.1-2.4,0.7v4.6
			h-1.1v-6.5h1.1v1c0.7-0.6,1.4-1.1,2.4-0.9V282.6z M6.7,284.7c0,1.7-0.9,3.4-2.8,3.4c-2.1,0.1-3.1-1.7-3.1-3.6
			c0.1-1.7,1-3.3,2.9-3.3C5.8,281.3,6.7,282.9,6.7,284.7L6.7,284.7z M5.6,284.7c0-1.2-0.4-2.5-1.8-2.5c-1.4,0-1.8,1.3-1.8,2.5
			c0,1.2,0.4,2.5,1.8,2.5C5.2,287.2,5.6,285.9,5.6,284.7L5.6,284.7z M11.1,288.1c-0.8,0-1.5-0.2-2.2-0.6v-1.2H9
			c0.3,0.2,0.5,0.4,0.8,0.5c0.7,0.3,1.7,0.5,2.3,0.1c0.9-0.6,0.2-1.5-0.6-1.7c-0.4-0.1-0.8-0.2-1.2-0.3c-1.3-0.4-1.9-1.9-1-3
			c0.9-1.1,2.9-0.9,4-0.3v1.2h-0.1c-0.7-0.6-2.6-1.3-3.2-0.2c-0.7,1.2,1.3,1.4,2,1.6c1.5,0.4,2,2.2,0.8,3.2
			C12.5,288,11.8,288.1,11.1,288.1L11.1,288.1z M24.3,288.1c-2.9,0-4.3-3.3-2.7-5.6c0.7-1,2-1.5,3.3-1.1c1.3,0.4,1.8,1.6,1.8,2.9
			v0.6h-4.5c0,2,1.8,2.9,3.5,2.1c0.3-0.1,0.6-0.3,0.8-0.5h0.1v1.2c-0.3,0.1-0.7,0.3-1,0.4C25.1,288.1,24.7,288.1,24.3,288.1
			L24.3,288.1z M25.6,284c0-0.4-0.1-0.9-0.4-1.3c-0.6-0.8-1.9-0.6-2.5,0c-0.3,0.4-0.5,0.8-0.5,1.3H25.6z M36.7,288v-7.7h-2.9v-1
			h7v1h-2.9v7.7H36.7z M44.7,288.1c-2.9,0-4.3-3.3-2.7-5.6c0.7-1,2-1.5,3.3-1.1c1.3,0.4,1.8,1.6,1.8,2.9v0.6h-4.5
			c0,2,1.8,2.9,3.5,2.1c0.3-0.1,0.6-0.3,0.8-0.5h0.1v1.2c-0.3,0.1-0.7,0.3-1,0.4C45.5,288.1,45.1,288.1,44.7,288.1L44.7,288.1z
			 M45.9,284c0-0.4-0.1-0.9-0.4-1.3c-0.6-0.8-1.9-0.6-2.5,0c-0.3,0.4-0.5,0.8-0.5,1.3H45.9z M52.2,288.1c-2.4,0-3.4-2.2-3-4.4
			c0.5-2.4,2.9-3,4.9-2v1.2h-0.1c-0.2-0.2-0.5-0.4-0.8-0.5c-2-1-3.2,0.8-3,2.7c0.2,2,2.3,2.5,3.8,1.2h0.1v1.2
			c-0.3,0.1-0.6,0.3-0.9,0.3C53,288.1,52.6,288.1,52.2,288.1L52.2,288.1z M61.8,288h-1.1v-3.7c0-0.5,0-1-0.2-1.5
			c-0.6-1.1-2.1-0.2-2.7,0.3v4.9h-1.1v-6.5h1.1v0.7c1.7-1.5,4-0.9,4,1.6V288z M70.2,284.7c0,1.7-0.9,3.4-2.8,3.4
			c-2.1,0.1-3.1-1.7-3.1-3.6c0.1-1.7,1-3.3,2.9-3.3C69.3,281.3,70.2,282.9,70.2,284.7L70.2,284.7z M69.1,284.7
			c0-1.2-0.4-2.5-1.8-2.5c-1.4,0-1.8,1.3-1.8,2.5c0,1.2,0.4,2.5,1.8,2.5C68.7,287.2,69.1,285.9,69.1,284.7L69.1,284.7z M74,288
			h-1.1v-9.1H74V288z M82.5,284.7c0,1.7-0.9,3.4-2.8,3.4c-2.1,0.1-3.1-1.7-3.1-3.6c0.1-1.7,1-3.3,2.9-3.3
			C81.6,281.3,82.5,282.9,82.5,284.7L82.5,284.7z M81.4,284.7c0-1.2-0.4-2.5-1.8-2.5c-1.4,0-1.8,1.3-1.8,2.5
			c0,1.2,0.4,2.5,1.8,2.5C81,287.2,81.4,285.9,81.4,284.7L81.4,284.7z M89.1,286.2v-3.6c-1.7-0.8-3.2-0.1-3.2,1.9
			c0,0.7,0,1.7,0.7,2.2C87.3,287.1,88.4,286.7,89.1,286.2L89.1,286.2z M85.4,289c0.3,0.1,0.5,0.2,0.8,0.3
			c0.8,0.2,1.9,0.4,2.5-0.3c0.3-0.4,0.3-0.8,0.3-1.3v-0.6c-1.2,1.1-3.2,1.1-4-0.5c-0.7-1.3-0.6-3.4,0.4-4.5
			c0.9-1,2.4-1.1,3.5-0.4l0.1-0.3h1v5.8c0,1.1-0.2,2.2-1.2,2.8c-1.1,0.6-2.6,0.5-3.7,0.1L85.4,289L85.4,289z M94.4,288h-1.1v-6.5
			h1.1V288z M94.5,280.3h-1.3v-1.1h1.3V280.3z M101.2,286.4v-1.8c-0.7,0.1-1.3,0.1-2,0.3c-0.8,0.3-1.4,1.3-0.7,2
			C99.3,287.6,100.5,286.9,101.2,286.4L101.2,286.4z M101.2,287.3c-0.3,0.2-0.5,0.4-0.8,0.6c-0.9,0.5-2,0.5-2.7-0.3
			c-1-1-0.7-2.8,0.6-3.4c0.9-0.4,2-0.4,2.9-0.5v-0.2c0-0.4-0.1-0.8-0.4-1c-0.8-0.5-2.2-0.1-3.1,0.2h-0.1v-1.1
			c1.2-0.3,2.9-0.6,4,0.2c0.5,0.4,0.7,1.1,0.7,1.7v4.5h-1.1V287.3z"></path>
    <path class="logo-casaDoCodigo" transform="translate(-77.000000, -14.000000)" d="M-16.8,250.8c-2.2,0.6-4.7-0.1-5.9-2.1c-1.1-1.9-1.2-4.6-0.6-6.7
			c0.8-2.6,2.9-3.8,5.5-3.6c0.5,0,1.8,0.5,2.1,0.3c0.3-0.2,0.6-1,0.9-1.3c-2.5-0.9-5.6-1.1-7.9,0.5c-2.2,1.6-2.9,4.4-2.9,7
			c0,2.6,0.8,5.5,3.2,6.9c2.3,1.4,5.7,1.2,7.8-0.4c-0.2-0.2-0.5-0.6-0.7-0.8c-0.1,0-0.1-0.2-0.2-0.2
			C-15.8,250.2-16.6,250.7-16.8,250.8C-17.3,250.9-16.4,250.6-16.8,250.8z M51.7,250.4c-2.2,0.6-4.7-0.1-5.9-2.1
			c-1.1-1.9-1.2-4.5-0.6-6.6c0.7-2.5,2.7-3.9,5.3-3.7c0.5,0,1,0.1,1.4,0.2c0.3,0.1,0.7,0.3,0.9,0.2c0.3-0.1,0.7-1.1,0.9-1.4
			c-2.5-0.9-5.6-1.1-7.9,0.5c-2.2,1.6-2.9,4.4-2.9,7c0,2.6,0.8,5.5,3.2,6.9c2.3,1.4,5.7,1.2,7.8-0.4c-0.2-0.2-0.5-0.6-0.7-0.8
			c-0.1,0-0.1-0.2-0.2-0.2C52.7,249.8,51.9,250.3,51.7,250.4C51.2,250.5,52.1,250.2,51.7,250.4z M-5.7,251.1
			c-0.6-1.6-0.2-3.7-0.2-5.4c0-1.5,0.1-3.3-1.5-4.1c-1.4-0.7-3.5-0.4-4.9,0c-0.3,0.1-0.9,0.2-1.1,0.4c-0.4,0.4-0.2,0-0.1,0.4
			c0,0.3,0.3,0.8,0.4,1.1c1.1-0.6,2.9-1,4.2-0.7c1.5,0.4,1.4,2,1.2,3.3c-0.8-0.1-1.7-0.1-2.5,0c-1.1,0.1-2.3,0.1-3.1,0.7
			c-1.8,1.4-1.8,4.4,0.4,5.4c1,0.5,2.3,0.4,3.3,0.1c0.5-0.1,1-0.4,1.4-0.7c0.1-0.1,0.6-0.7,0.7-0.7c0.2,0,0.4,1,0.6,1.2
			c0.2,0.2,0.3,0.3,0.6,0.3c0.5,0.1,1,0,1.5,0C-5.1,252-5.5,251.6-5.7,251.1C-5.9,250.6-5.5,251.6-5.7,251.1z M-7.6,249.2
			c-0.5,1.3-2.2,1.9-3.5,1.7c-1.5-0.2-2.3-2.1-0.9-3.1c0.6-0.4,1.3-0.4,2-0.4c0.4,0,1.9-0.3,2.3,0
			C-7.5,247.6-7.6,248.7-7.6,249.2z M1.7,246.7c-1.1-0.8-4.6-1.1-3.9-3.2c0.6-1.6,3.5-0.8,4.5-0.3c0.1-0.3,0.5-1.2,0.4-1.4
			c-0.1-0.2-1.1-0.4-1.4-0.5c-0.5-0.1-1.1-0.2-1.7-0.2c-2.3-0.1-4.3,1.3-3.6,3.9c0.3,1.1,1.3,1.7,2.2,2.1c1,0.4,2.7,0.7,3,2
			c0.6,2.9-3.8,2-5.1,1.3c-0.1,0.3-0.2,0.6-0.3,0.9c-0.2,0.5-0.3,0.6,0.3,0.8c1.2,0.5,2.7,0.7,4,0.5C3,252.1,4.3,248.4,1.7,246.7
			z M12.8,251.1c-0.6-1.6-0.2-3.7-0.2-5.4c0-1.5,0.1-3.3-1.5-4.1c-1.4-0.7-3.5-0.4-4.9,0c-0.3,0.1-0.9,0.2-1.1,0.4
			c-0.4,0.4-0.2,0-0.1,0.4c0,0.3,0.3,0.8,0.4,1.1c1.1-0.6,2.9-1,4.2-0.7c1.5,0.4,1.4,2,1.2,3.3c-0.8-0.1-1.7-0.1-2.5,0
			c-1.1,0.1-2.3,0.1-3.1,0.7c-1.8,1.4-1.8,4.4,0.4,5.4c1,0.5,2.3,0.4,3.3,0.1c0.5-0.1,1-0.4,1.4-0.7c0.1-0.1,0.6-0.7,0.7-0.7
			c0.2,0,0.4,1,0.6,1.2c0.2,0.2,0.3,0.3,0.6,0.3c0.5,0.1,1,0,1.5,0C13.3,252,13,251.6,12.8,251.1C12.6,250.6,13,251.6,12.8,251.1
			z M10.9,249.2c-0.5,1.3-2.2,1.9-3.5,1.7c-1.5-0.2-2.3-2.1-0.9-3.1c0.6-0.4,1.3-0.4,2-0.4c0.4,0,1.9-0.3,2.3,0
			C11,247.6,10.9,248.7,10.9,249.2z M27.9,248.5c0-2.6,0-5.1,0-7.7c0-0.7,0-1.5,0-2.2c0-0.4,0.1-1.1,0-1.5
			c-0.1-0.4,0-0.3-0.6-0.3c-0.2,0-0.8-0.1-1,0c-0.3,0.1,0-0.1-0.2,0.2c-0.3,0.6,0,1.8,0,2.5c0,0.6,0,1.3,0,1.9
			c-2.3-0.8-5.3-0.4-6.6,1.9c-1.1,2-1.1,5.5,0.1,7.5c1.3,2,4.6,2.2,6.3,0.5c0.3-0.3,0.3-0.6,0.6-0.5c0.1,0.1,0.2,0.9,0.3,1
			c0.1,0.3,0,0.3,0.3,0.4c0.2,0.1,0.8,0,1,0C27.9,251.1,27.9,249.8,27.9,248.5z M26.1,248.7c-0.3,1.3-1,2.2-2.4,2.3
			c-1.4,0.1-2.4-0.6-2.8-1.9c-0.7-2.1-0.5-5.7,2.1-6.4c0.7-0.2,2.7-0.3,3.1,0.5c0.2,0.3,0,1.2,0,1.6
			C26.1,246.2,26.1,247.4,26.1,248.7z M37.4,242.6c-1.8-2.3-5.9-2.1-7.5,0.3c-1.4,2.1-1.4,6,0.2,8.1c1.7,2.2,5.7,2.1,7.4-0.1
			C39.1,248.8,39.1,244.7,37.4,242.6C37,242.1,37.8,243.2,37.4,242.6z M33.8,251.1c-2.7,0-3.1-3.1-3-5.1c0.2-1.8,1-3.3,3-3.3
			c2.7,0,3.2,3,3,5.1C36.6,249.5,35.7,251.1,33.8,251.1C33.2,251.1,35.8,251.1,33.8,251.1z M62.6,236.7c-0.5,0-1,0-1.5,0
			c-0.6,0-0.5-0.1-0.8,0.3c-0.7,0.8-1.2,1.9-1.7,2.8c0.4,0,1,0.1,1.3,0c0.2-0.1,0.5-0.6,0.7-0.8
			C61.2,238.3,61.9,237.5,62.6,236.7z M59.8,241.1c-2.3,0-4.3,1.4-5,3.6c-0.7,2.2-0.3,5,1.6,6.5c1.6,1.3,4,1.4,5.8,0.4
			c2.1-1.1,2.9-3.6,2.6-5.8C64.5,243,62.5,241.1,59.8,241.1z M59.7,250.7c-4.4,0-4.3-8.4,0.2-8.2
			C64.1,242.7,63.9,250.7,59.7,250.7z M76.3,236.3c-0.4,0-1.7-0.2-1.9,0c-0.2,0.2,0,1.5,0,1.7c0,1.5,0,3.1,0,4.6
			c-1.3-1.5-3.3-2.1-5.2-1.1c-1.9,1-2.8,3.2-2.8,5.2c0,2.1,0.9,4.3,2.9,5.1c0.9,0.4,2,0.4,3,0.1c0.5-0.2,1-0.4,1.4-0.8
			c0.3-0.3,0.6-0.9,0.9-1.1c0,0.4-0.1,1.6,0.1,1.8c0.2,0.2,1.4,0,1.7,0C76.1,246.7,76.3,241.5,76.3,236.3z M74.4,247.5
			c0,2.2-2.3,3.9-4.3,2.8c-1.9-1-2.1-3.8-1.4-5.6c0.7-1.9,3-2.9,4.7-1.5C74.6,244.3,74.4,246,74.4,247.5z M90.2,242.9
			c-0.6-0.6-1-1.3-1.9-1.6c-1-0.4-2.1-0.3-3,0c-2,0.7-3.1,2.7-3.3,4.7c-0.2,2.1,0.6,4.4,2.6,5.4c0.9,0.5,2,0.6,3,0.3
			c1.1-0.3,1.6-1,2.4-1.7c0,1.4,0.1,3.1-1.1,4.2c-1.4,1.2-4,0.8-5.4-0.1c-0.1,0.3-0.2,0.7-0.3,1c-0.2,0.6,0,0.6,0.6,0.9
			c1.3,0.5,2.9,0.6,4.3,0.4c3-0.6,3.9-3,3.9-5.8c0-3.1-0.2-6.2,0.1-9.3c-0.3,0-1.5-0.2-1.7,0C90.1,241.5,90.2,242.6,90.2,242.9z
			 M89.9,247.4c0,2.4-2.7,3.9-4.6,2.4c-1.6-1.2-1.7-3.8-0.9-5.5c0.8-1.7,3.2-2.5,4.6-1C90.2,244.4,89.9,246,89.9,247.4z
			 M98.4,241.1c-2.2,0-4.2,1.3-4.9,3.4c-0.8,2.2-0.3,5,1.5,6.5c1.6,1.3,4,1.5,5.8,0.6c2.2-1.1,3-3.6,2.7-5.9
			C103.1,243,101.1,241.1,98.4,241.1z M98.3,250.7c-4.4,0-4.3-8.4,0.2-8.2C102.7,242.7,102.5,250.7,98.3,250.7z M79.2,236.3
			c-1.5,0-1.6,2.4,0,2.4C80.7,238.7,80.8,236.3,79.2,236.3z M78.2,241.3c0.4,0,1.7-0.2,1.9,0.1c0.2,0.3,0,1.6,0,1.9
			c0,2.3,0,4.6,0,6.9c0,0.3,0.2,1.6,0,1.8c-0.1,0.1-1.8,0.1-1.9,0c-0.2-0.2,0-1.4,0-1.6c0-1.1,0-2.2,0-3.3
			C78.2,245.1,78.2,243.2,78.2,241.3z"></path>
  </g>
</svg>

